{"title":"Southpaw.2015.WEBRiP.XViD.ReLeNTLesS","uid":12302033,"size":1596747573,"categoryP":"video","categoryS":"movies","magnet":"?xt=urn:btih:0bdd88aa8549e570420666487bef52c76519972d&amp;dn=Southpaw.2015.WEBRiP.XViD.ReLeNTLesS&amp;tr=udp%3A%2F%2Ftracker.openbittorrent.com%3A80&amp;tr=udp%3A%2F%2Fopen.demonii.com%3A1337&amp;tr=udp%3A%2F%2Ftracker.coppersurfer.tk%3A6969&amp;tr=udp%3A%2F%2Fexodus.desync.com%3A6969","seeders":5,"leechers":0,"uploader":"TvTeam","files":4,"time":1440717083,"description":"------------------------------------------------------------------------\n\n &lt;a href=&quot; https://www.torrenting.com&quot; rel=&quot;nofollow&quot; target=&quot;_NEW&quot;&gt; https://www.torrenting.com&lt;/a&gt;\n\nSign up is OPEN - for time being. Come and have fun\n\n.......................................................................................................................P0STER\n[img]http://i.imgur.com/mHW6OjP.png[/img]\n\niMDB: http://www.imdb.com/title/tt1798684/\n\nGeneral\nComplete name               : Southpaw.2015.WEBRiP.XViD.ReLeNTLesS.avi\nFormat                      : AVI\nFormat/Info                 : Audio Video Interleave\nFile size                   : 1.47 GiB\nDuration                    : 2h 3mn\nOverall bit rate            : 1 701 Kbps\n\nVideo\nID                          : 0\nFormat                      : MPEG-4 Visual\nFormat profile              : Advanced Simple@L5\nFormat settings, BVOP       : 1\nFormat settings, QPel       : No\nFormat settings, GMC        : No warppoints\nFormat settings, Matrix     : Default (H.263)\nMuxing mode                 : Packed bitstream\nCodec ID                    : XVID\nCodec ID/Hint               : XviD\nDuration                    : 2h 3mn\nBit rate                    : 1 501 Kbps\nWidth                       : 720 pixels\nHeight                      : 304 pixels\nDisplay aspect ratio        : 2.35:1\nFrame rate                  : 23.976 fps\nColor space                 : YUV\nChroma subsampling          : 4:2:0\nBit depth                   : 8 bits\nScan type                   : Progressive\nCompression mode            : Lossy\nBits/(Pixel*Frame)          : 0.286\nStream size                 : 1.30 GiB (88%)\nWriting library             : XviD 1.2.1 (UTC 2008-12-04)\n\nAudio\nID                          : 1\nFormat                      : AC-3\nFormat/Info                 : Audio Coding 3\nMode extension              : CM (complete main)\nFormat settings, Endianness : Big\nCodec ID                    : 2000\nDuration                    : 2h 3mn\nBit rate mode               : Constant\nBit rate                    : 192 Kbps\nChannel(s)                  : 2 channels\nChannel positions           : Front: L R\nSampling rate               : 48.0 KHz\nCompression mode            : Lossy\nStream size                 : 170 MiB (11%)\nAlignment                   : Aligned on interleaves\nInterleave, duration        : 64 ms (1.53 video frames)\nInterleave, preload duratio : 192 ms\nTitle                       : Southpaw.2015.ReLeNTLesS.audio.2.0.English\nSample Included             : Yes\nSource                      : SRS Thanks\n\nPL0T\nBoxer Billy Hope turns to trainer Tick Willis to help him get his life back on track after losing his wife in a tragic accident and his daughter to child protection services.\n\nCAST\nDirector: Antoine Fuqua\nWriter: Kurt Sutter\nStars: Jake Gyllenhaal, Rachel McAdams, Oona Laurence\n\nN0TE\nResized, DeGrained and sharpend did audio and muxed.\n\nSCREENS\n[img]http://i.imgur.com/zn7RQKo.png[/img]\n[img]http://i.imgur.com/fM4dLf8.png[/img]\n[img]http://i.imgur.com/gzs5cDn.png[/img]\n[img]http://i.imgur.com/uhZl6b2.png[/img]\n[img]http://i.imgur.com/WavJ6tc.png[/img]\n[img]http://i.imgur.com/uMFSOtW.png[/img]\n\nTRAiLER\n\nGREETZ\n\n\nHIVE-CM8, Blackjesus, M0RPH, M00SE, MiLLENiUM,\n\nMANiX, TiTAN, Anonymous, TuX, \n\nACAB, KingStoner, FooKas, 4PlayHD, \n\nGodFather, Cld.... \n\nKeep up the good work guyz","torrent":{"xt":"urn:btih:0bdd88aa8549e570420666487bef52c76519972d","amp;dn":"Southpaw.2015.WEBRiP.XViD.ReLeNTLesS","amp;tr":["udp%3A%2F%2Ftracker.openbittorrent.com%3A80","udp%3A%2F%2Fopen.demonii.com%3A1337","udp%3A%2F%2Ftracker.coppersurfer.tk%3A6969","udp%3A%2F%2Fexodus.desync.com%3A6969"],"infoHash":"0bdd88aa8549e570420666487bef52c76519972d","infoHashBuffer":{"type":"Buffer","data":[11,221,136,170,133,73,229,112,66,6,102,72,123,239,82,199,101,25,151,45]},"announce":[],"urlList":[]}}